<?xml version="1.0" encoding="UTF-8" standalone="no"?>
<!DOCTYPE svg PUBLIC "-//W3C//DTD SVG 1.1//EN" "http://www.w3.org/Graphics/SVG/1.1/DTD/svg11.dtd">
<svg width="100%" height="100%" viewBox="0 0 1920 1080" version="1.1" xmlns="http://www.w3.org/2000/svg" xmlns:xlink="http://www.w3.org/1999/xlink" xml:space="preserve" xmlns:serif="http://www.serif.com/" style="fill-rule:evenodd;clip-rule:evenodd;stroke-miterlimit:10;">
    <g transform="matrix(1.77778,0,0,1,0,0)">
        <rect x="0" y="0" width="1080" height="1080" style="fill:rgb(244,238,226);"/>
    </g>
    <g transform="matrix(1.86223,0,0,1.86223,-39.6513,-381.061)">
        <g transform="matrix(1,0,0,1,593.541,439.601)">
            <path d="M0,109.685C2.069,109.653 3.761,108.864 5.089,107.304C6.418,105.75 7.46,103.635 8.263,101.003C9.067,98.37 9.705,95.338 10.213,91.944C10.719,88.55 11.178,84.991 11.574,81.278C11.968,77.569 12.246,74.165 12.356,71.038C12.464,67.916 12.286,65.203 11.794,62.879C11.301,60.554 10.4,58.751 9.089,57.454C7.777,56.159 5.961,55.553 3.651,55.651C-2.716,55.923 -9.243,56.259 -15.953,56.668C-16.37,74.184 -17.076,91.843 -17.16,109.998C-11.422,109.88 -5.703,109.776 0,109.685M-2.335,51.373C0.041,51.27 2.01,50.512 3.605,49.103C5.195,47.694 6.479,45.84 7.425,43.539C8.37,41.237 9.058,38.542 9.421,35.439C9.782,32.335 9.921,29.03 9.771,25.503C9.618,21.978 9.188,18.671 8.523,15.579C7.858,12.489 6.866,9.741 5.639,7.349C4.412,4.958 2.901,3.053 1.202,1.657C-0.505,0.259 -2.43,-0.447 -4.601,-0.45C-8.65,-0.456 -12.714,-0.46 -16.794,-0.46C-15.501,17.163 -15.491,34.545 -15.85,52.039C-11.262,51.785 -6.759,51.564 -2.335,51.373M9.049,51.557C11.353,52.1 13.25,53.22 14.727,54.918C16.204,56.617 17.286,58.736 17.981,61.293C18.676,63.852 19.001,66.795 18.995,70.157C18.99,73.52 18.716,77.142 18.249,81.067C17.728,85.43 17.035,89.653 16.19,93.715C15.346,97.779 14.333,101.401 13.076,104.5C11.819,107.601 10.287,110.12 8.399,112.001C6.514,113.883 4.218,114.813 1.504,114.811L-23.851,114.811L-23.851,-5.127L-4.089,-5.127C-1.382,-5.128 1.162,-4.284 3.607,-2.603C6.043,-0.924 8.327,1.323 10.312,4.107C12.295,6.892 13.977,10.131 15.184,13.799C16.391,17.471 17.123,21.361 17.32,25.481C17.584,31.044 16.856,36.054 15.453,40.587C14.038,45.118 11.846,48.771 9.049,51.557" style="fill:rgb(162,119,234);fill-rule:nonzero;"/>
        </g>
        <g transform="matrix(1,0,0,1,625.946,549.601)">
            <path d="M0,-110.316C7.331,-92.3 6.621,-76.208 4.104,-59.63C13.056,-59.705 21.716,-59.671 30.157,-59.557C29.858,-58.126 29.544,-56.691 29.221,-55.25C20.846,-55.338 12.264,-55.342 3.401,-55.233C0.614,-38.551 -3.431,-21.17 -2.497,-0.682C8.008,-0.774 18.479,-0.828 28.936,-0.854C29.175,1.002 29.473,2.889 29.835,4.811L-8.815,4.811C-12.133,-42.274 9.568,-73.865 -8.815,-115.127L29.835,-115.127C30.78,-113.43 31.637,-111.759 32.413,-110.11C21.69,-110.187 10.893,-110.258 0,-110.316" style="fill:rgb(162,119,234);fill-rule:nonzero;"/>
        </g>
        <g transform="matrix(1,0,0,1,695.644,478.74)">
            <path d="M0,31.407C0.662,12.75 4.864,-4 -2.594,-23.961C-2.801,-4.221 -13.497,12.098 -21.269,30.868C-14.123,31.001 -7.049,31.187 0,31.407M-6.734,-44.265C26.169,1.787 -9.71,27.136 16.951,75.672L10.048,75.672C2.022,60.566 0.01,47.746 -0.047,35.861C-7.693,35.641 -15.354,35.463 -23.088,35.347C-27.694,47.311 -30.827,60.374 -29.837,75.672L-32.016,75.672C-35.727,25.727 7.527,1.132 -8.333,-44.265L-6.734,-44.265Z" style="fill:rgb(162,119,234);fill-rule:nonzero;"/>
        </g>
        <g transform="matrix(1,0,0,1,760.69,554.416)">
            <path d="M0,-119.941L2.107,-119.941C11.51,-88.676 -0.772,-67.282 -4.885,-44.22C-5.886,-38.638 -6.865,-33.315 -7.749,-28.159C-8.639,-23.006 -9.279,-18.322 -10.03,-14.181C-10.781,-10.04 -11.623,-6.587 -13.042,-3.984C-14.446,-1.376 -16.431,0 -19.252,-0.003L-19.689,-0.003C-22.491,-0.001 -25.763,-1.121 -29.234,-3.321C-32.695,-5.513 -36.118,-8.753 -38.983,-12.847C-41.85,-16.941 -44.041,-21.852 -45.116,-27.381C-46.206,-32.915 -45.976,-39.072 -44.418,-45.795C-39.075,-69.096 -27.378,-89.724 -41.048,-119.941L-34.363,-119.941C-21.557,-90.209 -32.626,-69.766 -37.992,-47.178C-39.351,-41.484 -39.753,-36.208 -39.137,-31.355C-38.531,-26.505 -37.041,-22.194 -34.967,-18.552C-32.895,-14.907 -30.359,-12 -27.745,-9.959C-25.121,-7.911 -22.607,-6.861 -20.416,-6.844C-20.25,-6.843 -20.083,-6.841 -19.916,-6.84C-17.757,-6.818 -16.205,-8.105 -15.022,-10.585C-13.828,-13.059 -12.966,-16.152 -12.122,-19.775C-11.281,-23.396 -10.464,-27.376 -9.497,-31.691C-8.533,-36.004 -7.599,-40.179 -6.853,-44.293C-2.666,-67.358 9.638,-88.701 0,-119.941" style="fill:rgb(162,119,234);fill-rule:nonzero;"/>
        </g>
        <g transform="matrix(1,0,0,1,819.854,548.868)">
            <path d="M0,-108.85C-6.821,-108.8 -13.628,-108.764 -20.428,-108.742C-15.178,-63.009 -44.226,-36.037 -21.24,5.544L-27.924,5.544C-51.366,-36.469 -20.823,-62.873 -26.988,-108.724C-33.785,-108.71 -40.576,-108.707 -47.367,-108.714C-47.738,-110.572 -48.182,-112.465 -48.702,-114.394L-0.462,-114.394C-0.261,-112.519 -0.109,-110.671 0,-108.85" style="fill:rgb(162,119,234);fill-rule:nonzero;"/>
        </g>
        <g transform="matrix(1,0,0,1,877.222,554.413)">
            <path d="M0,-119.938L2.761,-119.938C-4.301,-99.48 -13.016,-77.635 -22.948,-57.73C-23.36,-56.881 -23.772,-56.033 -24.182,-55.187C-25.391,-36.922 -25.291,-18.992 -20.269,0L-26.953,0C-33.116,-19.035 -33.183,-36.713 -31.663,-54.78C-38.76,-74.995 -40.446,-94.798 -49.911,-119.938L-41.339,-119.938C-33.294,-97.712 -30.584,-79.551 -24.219,-61.269C-14.847,-80.034 -6.664,-100.485 0,-119.938" style="fill:rgb(162,119,234);fill-rule:nonzero;"/>
        </g>
        <g transform="matrix(1,0,0,1,217.507,497.67)">
            <path d="M0,-4.597C2.366,-4.597 4.275,-5.285 5.728,-6.662C7.18,-8.039 8.31,-9.894 9.116,-12.227C9.923,-14.56 10.474,-17.314 10.771,-20.494C11.065,-23.674 11.214,-27.064 11.214,-30.67C11.214,-34.273 11.065,-37.639 10.771,-40.764C10.474,-43.889 9.923,-46.646 9.116,-49.031C8.31,-51.416 7.18,-53.298 5.728,-54.675C4.275,-56.052 2.366,-56.743 0,-56.743L-16.459,-56.743L-16.459,-4.597L0,-4.597ZM1.613,-61.339C4.625,-61.339 7.207,-60.519 9.358,-58.883C11.509,-57.243 13.271,-55.051 14.643,-52.305C16.015,-49.556 17.023,-46.334 17.669,-42.637C18.313,-38.936 18.637,-34.974 18.637,-30.749C18.637,-26.522 18.313,-22.532 17.669,-18.783C17.023,-15.031 16.015,-11.781 14.643,-9.035C13.271,-6.286 11.509,-4.094 9.358,-2.457C7.207,-0.818 4.625,0 1.613,0L-16.459,0L-16.459,56.742L-23.882,56.742L-23.882,-61.339L1.613,-61.339Z" style="fill:none;fill-rule:nonzero;stroke:rgb(162,119,234);stroke-width:1.07px;"/>
        </g>
        <g transform="matrix(1,0,0,1,295.589,553.818)">
            <path d="M0,-117.487L6.052,-118.081L6.052,-43.429C6.052,-37.406 5.406,-31.752 4.115,-26.47C2.825,-21.185 1.09,-16.588 -1.088,-12.68C-3.266,-8.77 -5.795,-5.679 -8.672,-3.408C-11.55,-1.135 -18.261,0.594 -21.38,0.594L-21.864,0.594C-24.984,0.594 -27.983,-0.33 -30.859,-2.18C-33.738,-4.027 -36.266,-6.776 -38.443,-10.422C-40.622,-14.067 -42.356,-18.584 -43.647,-23.973C-44.938,-29.362 -45.584,-35.648 -45.584,-42.835L-45.584,-117.487L-38.161,-117.487L-38.161,-44.578C-38.161,-38.448 -37.65,-32.953 -36.629,-28.094C-35.607,-23.233 -34.222,-19.112 -32.474,-15.731C-30.727,-12.348 -28.722,-9.76 -26.463,-7.965C-24.204,-6.167 -21.838,-5.27 -19.363,-5.27L-18.798,-5.27C-16.378,-5.27 -14.025,-6.404 -11.738,-8.678C-9.453,-10.949 -7.45,-13.854 -5.728,-17.396C-4.007,-20.934 -2.622,-24.949 -1.573,-29.441C-0.524,-33.931 0,-38.397 0,-42.835L0,-117.487Z" style="fill:none;fill-rule:nonzero;stroke:rgb(162,119,234);stroke-width:1.07px;"/>
        </g>
        <g transform="matrix(1,0,0,1,342.158,497.67)">
            <path d="M0,-4.597C2.366,-4.597 4.275,-5.285 5.728,-6.662C7.18,-8.039 8.31,-9.894 9.116,-12.227C9.923,-14.56 10.474,-17.314 10.771,-20.494C11.065,-23.674 11.214,-27.064 11.214,-30.67C11.214,-34.273 11.065,-37.639 10.771,-40.764C10.474,-43.889 9.923,-46.646 9.116,-49.031C8.31,-51.416 7.18,-53.298 5.728,-54.675C4.275,-56.052 2.366,-56.743 0,-56.743L-16.459,-56.743L-16.459,-4.597L0,-4.597ZM18.637,-30.749C18.637,-26.945 18.367,-23.325 17.83,-19.892C17.292,-16.457 16.471,-13.393 15.369,-10.699C14.266,-8.005 12.84,-5.759 11.093,-3.963C9.345,-2.165 7.261,-1.003 4.841,-0.476L24.607,56.742L15.651,56.742L-4.034,0L-16.459,0L-16.459,56.742L-23.882,56.742L-23.882,-61.339L1.613,-61.339C4.625,-61.339 7.207,-60.519 9.358,-58.883C11.509,-57.243 13.271,-55.051 14.643,-52.305C16.015,-49.556 17.023,-46.334 17.669,-42.637C18.313,-38.936 18.637,-34.974 18.637,-30.749Z" style="fill:none;fill-rule:nonzero;stroke:rgb(162,119,234);stroke-width:1.07px;"/>
        </g>
        <g transform="matrix(1,0,0,1,407.427,497.67)">
            <path d="M0,-4.597C2.366,-4.597 4.275,-5.285 5.728,-6.662C7.18,-8.039 8.31,-9.894 9.116,-12.227C9.923,-14.56 10.474,-17.314 10.771,-20.494C11.065,-23.674 11.214,-27.064 11.214,-30.67C11.214,-34.273 11.065,-37.639 10.771,-40.764C10.474,-43.889 9.923,-46.646 9.116,-49.031C8.31,-51.416 7.18,-53.298 5.728,-54.675C4.275,-56.052 2.366,-56.743 0,-56.743L-16.459,-56.743L-16.459,-4.597L0,-4.597ZM1.613,-61.339C4.625,-61.339 7.207,-60.519 9.358,-58.883C11.509,-57.243 13.271,-55.051 14.643,-52.305C16.015,-49.556 17.023,-46.334 17.669,-42.637C18.313,-38.936 18.637,-34.974 18.637,-30.749C18.637,-26.522 18.313,-22.532 17.669,-18.783C17.023,-15.031 16.015,-11.781 14.643,-9.035C13.271,-6.286 11.509,-4.094 9.358,-2.457C7.207,-0.818 4.625,0 1.613,0L-16.459,0L-16.459,56.742L-23.882,56.742L-23.882,-61.339L1.613,-61.339Z" style="fill:none;fill-rule:nonzero;stroke:rgb(162,119,234);stroke-width:1.07px;"/>
        </g>
        <g transform="matrix(1,0,0,1,484.153,440.927)">
            <path d="M0,109.206L0,113.802L-41.228,113.802L-41.228,-4.596L-33.805,-4.596L-33.805,109.206L0,109.206Z" style="fill:none;fill-rule:nonzero;stroke:rgb(162,119,234);stroke-width:1.07px;"/>
        </g>
        <g transform="matrix(1,0,0,1,509.889,549.816)">
            <path d="M0,-108.889L0,-56.743L28.883,-56.743L28.883,-52.146L0,-52.146L0,-0.001L35.499,-0.001L35.499,4.596L-7.423,4.596L-7.423,-113.485L35.499,-113.485L35.499,-108.889L0,-108.889Z" style="fill:none;fill-rule:nonzero;stroke:rgb(162,119,234);stroke-width:1.07px;"/>
        </g>
    </g>
</svg>
