<svg width="451" height="81" viewBox="0 0 451 81" fill="none" xmlns="http://www.w3.org/2000/svg">
<path d="M263.015 76.4243C264.37 76.4033 265.479 75.8849 266.349 74.8601C267.22 73.8392 267.902 72.4498 268.428 70.7208C268.955 68.991 269.373 66.9992 269.706 64.7696C270.037 62.5399 270.338 60.2019 270.598 57.7627C270.856 55.3261 271.038 53.0899 271.11 51.0356C271.181 48.9847 271.064 47.2024 270.742 45.6757C270.419 44.1483 269.828 42.9638 268.969 42.1118C268.11 41.2611 266.92 40.863 265.407 40.9273C261.235 41.106 256.959 41.3268 252.563 41.5954C252.289 53.1024 251.827 64.7032 251.772 76.6299C255.531 76.5524 259.278 76.4841 263.015 76.4243ZM261.485 38.117C263.041 38.0493 264.332 37.5513 265.377 36.6257C266.418 35.7001 267.259 34.4821 267.879 32.9705C268.498 31.4582 268.949 29.6878 269.187 27.6493C269.424 25.6102 269.515 23.439 269.416 21.122C269.316 18.8063 269.034 16.6338 268.599 14.6025C268.163 12.5726 267.513 10.7673 266.709 9.19595C265.905 7.62521 264.915 6.37375 263.802 5.45666C262.684 4.53827 261.423 4.07447 260 4.0725C257.347 4.06855 254.685 4.06593 252.012 4.06593C252.859 15.6431 252.865 27.062 252.63 38.5545C255.636 38.3876 258.586 38.2424 261.485 38.117ZM268.943 38.2378C270.453 38.5946 271.696 39.3303 272.663 40.4458C273.631 41.5619 274.34 42.954 274.795 44.6338C275.251 46.3149 275.464 48.2482 275.46 50.4569C275.456 52.6661 275.277 55.0456 274.971 57.6241C274.63 60.4903 274.176 63.2645 273.622 65.933C273.069 68.6028 272.405 70.9822 271.582 73.0181C270.758 75.0552 269.754 76.7101 268.517 77.9458C267.282 79.1821 265.778 79.7931 264 79.7917H247.388V1H260.336C262.109 0.999344 263.776 1.5538 265.378 2.65811C266.974 3.76111 268.47 5.23725 269.771 7.06616C271.07 8.89573 272.172 11.0236 272.963 13.4332C273.754 15.8455 274.233 18.401 274.362 21.1075C274.535 24.7621 274.058 28.0533 273.139 31.0312C272.212 34.0078 270.776 36.4076 268.943 38.2378Z" fill="#A277EA"/>
<path d="M284.245 4.16052C289.049 15.9959 288.583 26.5673 286.934 37.4581C292.799 37.4088 298.473 37.4311 304.004 37.506C303.808 38.4461 303.602 39.3888 303.39 40.3354C297.903 40.2776 292.281 40.275 286.474 40.3466C284.648 51.3056 281.998 62.7239 282.61 76.1832C289.492 76.1228 296.352 76.0873 303.204 76.0702C303.36 77.2895 303.555 78.5291 303.793 79.7918H278.47C276.296 48.8599 290.514 28.1066 278.47 1H303.793C304.412 2.11482 304.973 3.21256 305.482 4.29585C298.456 4.24527 291.382 4.19863 284.245 4.16052Z" fill="#A277EA"/>
<path d="M329.91 50.7124C330.344 38.4559 333.097 27.4522 328.21 14.3391C328.075 27.307 321.067 38.0276 315.975 50.3583C320.657 50.4457 325.292 50.5679 329.91 50.7124ZM325.498 1.00064C347.055 31.2539 323.548 47.9066 341.016 79.7917H336.493C331.235 69.868 329.916 61.4461 329.879 53.6384C324.87 53.4939 319.85 53.3769 314.783 53.3007C311.765 61.1603 309.713 69.7419 310.361 79.7917H308.934C306.502 46.981 334.841 30.8236 324.45 1.00064H325.498Z" fill="#A277EA"/>
<path d="M372.526 1.00064H373.907C380.067 21.5398 372.021 35.5943 369.326 50.7446C368.67 54.4116 368.029 57.9085 367.449 61.2957C366.866 64.6809 366.447 67.758 365.955 70.4783C365.463 73.1987 364.911 75.4671 363.982 77.1771C363.062 78.8904 361.761 79.7944 359.913 79.7924H359.627C357.791 79.7937 355.647 79.0579 353.373 77.6127C351.105 76.1727 348.863 74.0442 346.986 71.3547C345.107 68.6652 343.672 65.439 342.967 61.8068C342.253 58.1713 342.404 54.1265 343.425 49.7099C346.925 34.4026 354.589 20.8513 345.633 1.00064H350.013C358.403 20.5327 351.151 33.9625 347.635 48.8014C346.745 52.542 346.481 56.008 346.885 59.1961C347.282 62.3822 348.258 65.2143 349.617 67.6069C350.974 70.0014 352.636 71.9111 354.349 73.2519C356.068 74.5973 357.715 75.2871 359.15 75.2983C359.259 75.2989 359.368 75.3003 359.478 75.3009C360.892 75.3154 361.909 74.4699 362.684 72.8407C363.467 71.2154 364.031 69.1835 364.584 66.8034C365.135 64.4247 365.671 61.81 366.304 58.9754C366.936 56.142 367.548 53.3993 368.036 50.6966C370.78 35.5444 378.841 21.5234 372.526 1.00064Z" fill="#A277EA"/>
<path d="M411.289 4.64206C406.82 4.67491 402.36 4.69856 397.905 4.71301C401.345 34.7567 382.313 52.4756 397.373 79.7918H392.994C377.635 52.1918 397.646 34.8461 393.607 4.72483C389.154 4.73403 384.705 4.736 380.255 4.7314C380.012 3.51081 379.721 2.26723 379.381 1H410.986C411.118 2.23176 411.218 3.44578 411.289 4.64206Z" fill="#A277EA"/>
<path d="M448.875 1.0007H450.684C446.057 14.4403 440.347 28.7911 433.84 41.8675C433.57 42.4252 433.3 42.9823 433.032 43.5381C432.24 55.537 432.305 67.3159 435.595 79.7925H431.216C427.178 67.2877 427.134 55.6743 428.13 43.8054C423.481 30.5254 422.376 17.5161 416.175 1.0007H421.791C427.062 15.6018 428.837 27.5324 433.007 39.5426C439.148 27.2151 444.509 13.7801 448.875 1.0007Z" fill="#A277EA"/>
<path d="M16.6469 39.4959C18.197 39.4959 19.4477 39.0439 20.3997 38.1393C21.351 37.2347 22.0914 36.0161 22.6194 34.4835C23.1482 32.9508 23.5092 31.1416 23.7037 29.0526C23.8964 26.9635 23.994 24.7365 23.994 22.3676C23.994 20.0006 23.8964 17.7894 23.7037 15.7365C23.5092 13.6835 23.1482 11.8724 22.6194 10.3056C22.0914 8.73876 21.351 7.5024 20.3997 6.5978C19.4477 5.6932 18.197 5.23926 16.6469 5.23926H5.86336V39.4959H16.6469ZM17.7037 2.21997C19.677 2.21997 21.3687 2.75866 22.778 3.83341C24.1873 4.91079 25.3417 6.35079 26.2406 8.15474C27.1395 9.96066 27.7999 12.0773 28.2231 14.506C28.6451 16.9373 28.8573 19.5401 28.8573 22.3157C28.8573 25.0926 28.6451 27.7137 28.2231 30.1766C27.7999 32.6414 27.1395 34.7765 26.2406 36.5804C25.3417 38.3863 24.1873 39.8263 22.778 40.9018C21.3687 41.9785 19.677 42.5159 17.7037 42.5159H5.86336V79.7918H1V2.21997H17.7037Z" stroke="#A277EA" stroke-width="1.99259" stroke-miterlimit="10"/>
<path d="M67.8042 2.21993L71.7693 1.82971V50.8714C71.7693 54.8281 71.346 58.5425 70.5002 62.0124C69.655 65.4843 68.5183 68.5043 67.0913 71.0716C65.6644 73.6402 64.0074 75.6708 62.1225 77.1627C60.2369 78.6559 55.84 79.7918 53.7965 79.7918H53.4794C51.4353 79.7918 49.4704 79.1848 47.5861 77.9694C45.6999 76.7561 44.0436 74.9501 42.6173 72.5549C41.1897 70.1604 40.0536 67.193 39.2078 63.6528C38.3619 60.1125 37.9387 55.983 37.9387 51.2616V2.21993H42.8021V50.1166C42.8021 54.1436 43.1369 57.7535 43.8058 60.9455C44.4754 64.1389 45.3828 66.8462 46.528 69.0673C47.6726 71.2897 48.9863 72.9898 50.4663 74.169C51.9463 75.3502 53.4965 75.9395 55.118 75.9395H55.4882C57.0737 75.9395 58.6153 75.1945 60.1137 73.7006C61.6108 72.2087 62.9231 70.3003 64.0513 67.9735C65.1789 65.6492 66.0863 63.0116 66.7736 60.0606C67.4609 57.111 67.8042 54.1771 67.8042 51.2616V2.21993Z" stroke="#A277EA" stroke-width="1.99259" stroke-miterlimit="10"/>
<path d="M98.315 39.4959C99.8651 39.4959 101.116 39.0439 102.068 38.1393C103.019 37.2347 103.759 36.0161 104.288 34.4835C104.816 32.9508 105.177 31.1416 105.372 29.0526C105.564 26.9635 105.662 24.7365 105.662 22.3676C105.662 20.0006 105.564 17.7894 105.372 15.7365C105.177 13.6835 104.816 11.8724 104.288 10.3056C103.759 8.73876 103.019 7.5024 102.068 6.5978C101.116 5.6932 99.8651 5.23926 98.315 5.23926H87.5315V39.4959H98.315ZM110.525 22.3157C110.525 24.8147 110.349 27.1928 109.997 29.4481C109.644 31.7046 109.106 33.7175 108.384 35.4873C107.662 37.2571 106.727 38.7325 105.583 39.9124C104.438 41.0936 103.072 41.8569 101.487 42.2031L114.437 79.7918H108.569L95.672 42.5159H87.5315V79.7918H82.6681V2.21997H99.3718C101.345 2.21997 103.037 2.75866 104.446 3.83341C105.855 4.91079 107.01 6.35079 107.909 8.15474C108.808 9.96066 109.468 12.0773 109.891 14.506C110.313 16.9373 110.525 19.5401 110.525 22.3157Z" stroke="#A277EA" stroke-width="1.99259" stroke-miterlimit="10"/>
<path d="M141.078 39.4959C142.628 39.4959 143.878 39.0439 144.83 38.1393C145.782 37.2347 146.522 36.0161 147.05 34.4835C147.579 32.9508 147.94 31.1416 148.134 29.0526C148.327 26.9635 148.425 24.7365 148.425 22.3676C148.425 20.0006 148.327 17.7894 148.134 15.7365C147.94 13.6835 147.579 11.8724 147.05 10.3056C146.522 8.73876 145.782 7.5024 144.83 6.5978C143.878 5.6932 142.628 5.23926 141.078 5.23926H130.294V39.4959H141.078ZM142.134 2.21997C144.108 2.21997 145.799 2.75866 147.209 3.83341C148.618 4.91079 149.772 6.35079 150.671 8.15474C151.57 9.96066 152.231 12.0773 152.654 14.506C153.076 16.9373 153.288 19.5401 153.288 22.3157C153.288 25.0926 153.076 27.7137 152.654 30.1766C152.231 32.6414 151.57 34.7765 150.671 36.5804C149.772 38.3863 148.618 39.8263 147.209 40.9018C145.799 41.9785 144.108 42.5159 142.134 42.5159H130.294V79.7918H125.431V2.21997H142.134Z" stroke="#A277EA" stroke-width="1.99259" stroke-miterlimit="10"/>
<path d="M191.346 76.9807V80H164.335V2.21991H169.198V76.9807H191.346Z" stroke="#A277EA" stroke-width="1.99259" stroke-miterlimit="10"/>
<path d="M208.208 5.23926V39.4959H227.131V42.5159H208.208V76.7719H231.466V79.7918H203.345V2.21997H231.466V5.23926H208.208Z" stroke="#A277EA" stroke-width="1.99259" stroke-miterlimit="10"/>
</svg>
